<svg width="24" height="24" viewBox="0 0 24 24" fill="none" xmlns="http://www.w3.org/2000/svg">
    <path d="M17.3055 8.19232C17.6718 8.55853 17.6718 9.15216 17.3055 9.51819L11.0162 15.8077C10.65 16.1737 10.0566 16.1737 9.69037 15.8077L6.69641 12.8135C6.3302 12.4475 6.3302 11.8539 6.69641 11.4879C7.06244 11.1216 7.65607 11.1216 8.02209 11.4879L10.3532 13.819L15.9797 8.19232C16.3459 7.82629 16.9395 7.82629 17.3055 8.19232ZM24.001 12C24.001 18.633 18.6331 24 12.001 24C5.36798 24 0.000976562 18.6321 0.000976562 12C0.000976562 5.367 5.3689 0 12.001 0C18.634 0 24.001 5.36792 24.001 12ZM22.126 12C22.126 6.40338 17.5969 1.875 12.001 1.875C6.40436 1.875 1.87598 6.40411 1.87598 12C1.87598 17.5966 6.40509 22.125 12.001 22.125C17.5976 22.125 22.126 17.5959 22.126 12Z" fill="#46B363"/>
</svg>
